<?xml version="1.0" encoding="iso-8859-1"?>
<!-- Generator: Adobe Illustrator 19.0.0, SVG Export Plug-In . SVG Version: 6.00 Build 0)  -->
<svg version="1.1" id="Capa_1" xmlns="http://www.w3.org/2000/svg" xmlns:xlink="http://www.w3.org/1999/xlink" x="0px" y="0px"
	 viewBox="0 0 512 512" style="enable-background:new 0 0 512 512;" xml:space="preserve">
<path style="fill:#E6E6E6;" d="M330.695,211.477c-12.055,12.055-31.599,12.055-43.654,0s-12.055-31.599,0-43.654
	c12.055-12.055,31.6-12.055,43.654,0c6.027,6.027,9.041,13.927,9.041,21.827V103.6c-42.616-20.019-94.985-12.428-130.198,22.785
	c-34.078,34.078-42.283,84.222-24.632,126.046l-35.918,35.918l-4.611,33.744l-33.744,4.611L89.598,347.74l-4.611,33.744
	l-33.744,4.611l-29.154,29.154l33.988,33.988h54.382L246.087,313.61c29.936,12.634,64.132,12.015,93.65-1.85V189.649
	C339.736,197.549,336.722,205.449,330.695,211.477z"/>
<path style="fill:#CCCCCC;" d="M330.695,211.477c-12.055,12.055-31.599,12.055-43.654,0L52.678,445.839l3.399,3.399h54.382
	l135.627-135.627c29.936,12.634,64.132,12.015,93.65-1.85V189.649C339.736,197.549,336.722,205.449,330.695,211.477z"/>
<path style="fill:#6AECF0;" d="M374.938,60.224c-63.497,0-114.971,51.474-114.971,114.971c0,48.193,29.656,89.453,71.711,106.546
	v50.796l20.6,27.121l-20.6,27.121v29.748l20.6,27.121l-20.6,27.121V512h48.067l38.454-38.454V281.741
	c42.055-17.093,71.711-58.353,71.711-106.546C489.909,111.699,438.435,60.224,374.938,60.224z M374.938,180.562
	c-17.048,0-30.868-13.82-30.868-30.868s13.82-30.868,30.868-30.868s30.868,13.82,30.868,30.868S391.986,180.562,374.938,180.562z"/>
<path style="fill:#01D9DF;" d="M374.938,60.224v58.601c17.048,0,30.868,13.82,30.868,30.868s-13.82,30.868-30.868,30.868V512h4.807
	l38.454-38.454V281.741c42.055-17.093,71.711-58.353,71.711-106.546C489.909,111.699,438.435,60.224,374.938,60.224z"/>
<path style="fill:#CCCCCC;" d="M314.714,0c-41.479,0-75.225,33.746-75.225,75.224v29.555c9.576-4.78,19.682-8.123,30-10.063V75.224
	c0-24.936,20.288-45.224,45.225-45.224s45.225,20.288,45.225,45.224v47.491c4.441-2.475,9.554-3.89,15-3.89s10.559,1.415,15,3.891
	V75.224C389.939,33.746,356.192,0,314.714,0z"/>
<g>
</g>
<g>
</g>
<g>
</g>
<g>
</g>
<g>
</g>
<g>
</g>
<g>
</g>
<g>
</g>
<g>
</g>
<g>
</g>
<g>
</g>
<g>
</g>
<g>
</g>
<g>
</g>
<g>
</g>
</svg>
