<svg id="Capa_1" enable-background="new 0 0 512 512" height="512" viewBox="0 0 512 512" width="512" xmlns="http://www.w3.org/2000/svg" xmlns:xlink="http://www.w3.org/1999/xlink"><linearGradient id="SVGID_1_" gradientUnits="userSpaceOnUse" x1="256" x2="256" y1="512" y2="0"><stop offset="0" stop-color="#ffe59a"/><stop offset="1" stop-color="#ffffd5"/></linearGradient><linearGradient id="SVGID_2_" gradientUnits="userSpaceOnUse" x1="256" x2="256" y1="389" y2="123"><stop offset="0" stop-color="#ffde00"/><stop offset="1" stop-color="#fd5900"/></linearGradient><g><g><circle cx="256" cy="256" fill="url(#SVGID_1_)" r="256"/></g><g><g><path d="m359.738 123h-243.017l121.514 86.641zm-68.209 88.667h71.059c3.084 0 6.057.614 8.882 1.614v-76.851l-128.065 91.316c-1.544 1.1-3.366 1.654-5.17 1.654s-3.626-.554-5.17-1.654l-128.065-91.308v155.028c0 4.901 3.973 8.867 8.882 8.867h115.471v-26.6c0-7.101 2.776-13.785 7.807-18.807l35.529-35.467c5.031-5.021 11.728-7.792 18.84-7.792zm112.869 55.797-35.529-35.467c-1.665-1.663-3.921-2.598-6.28-2.598h-71.059c-2.359 0-4.615.935-6.28 2.598l-35.529 35.467c-1.665 1.663-2.602 3.914-2.602 6.269v70.933c0 2.355.937 4.606 2.602 6.269l35.529 35.467c1.665 1.663 3.921 2.598 6.28 2.598h71.059c2.359 0 4.615-.935 6.28-2.598l35.529-35.467c1.665-1.663 2.602-3.914 2.602-6.269v-70.933c0-2.355-.937-4.606-2.602-6.269zm-77.339 86.069c-4.905 0-8.882-3.97-8.882-8.867s3.977-8.867 8.882-8.867 8.882 3.969 8.882 8.867c0 4.897-3.977 8.867-8.882 8.867zm8.882-44.333c0 4.901-3.973 8.866-8.882 8.866-4.91 0-8.882-3.965-8.882-8.866v-35.467c0-4.901 3.973-8.867 8.882-8.867 4.91 0 8.882 3.966 8.882 8.867z" fill="url(#SVGID_2_)"/></g></g></g></svg>