<svg id="Capa_1" enable-background="new 0 0 512 512" height="512" viewBox="0 0 512 512" width="512" xmlns="http://www.w3.org/2000/svg" xmlns:xlink="http://www.w3.org/1999/xlink"><linearGradient id="SVGID_1_" gradientUnits="userSpaceOnUse" x1="256" x2="256" y1="512" y2="0"><stop offset="0" stop-color="#addcff"/><stop offset=".5028" stop-color="#eaf6ff"/><stop offset="1" stop-color="#eaf6ff"/></linearGradient><linearGradient id="SVGID_2_" gradientUnits="userSpaceOnUse" x1="256" x2="256" y1="389.5" y2="122.5"><stop offset="0" stop-color="#00c0ff"/><stop offset="1" stop-color="#5558ff"/></linearGradient><g><g><circle cx="256" cy="256" fill="url(#SVGID_1_)" r="256"/></g><g><g><path d="m359.734 122.5h-242.994l121.495 86.966zm-32.675 89c15.998 0 31.069 3.948 44.412 10.809v-86.33l-128.066 91.661c-1.544 1.104-3.365 1.66-5.17 1.66s-3.626-.556-5.17-1.66l-128.065-91.664v155.624c0 4.919 3.973 8.9 8.882 8.9h115.921c4.51-49.821 46.387-89 97.256-89zm0 17.8c-44.15 0-79.941 35.862-79.941 80.1s35.791 80.1 79.941 80.1 79.941-35.862 79.941-80.1-35.791-80.1-79.941-80.1zm41.809 68.593-44.412 44.5c-1.735 1.738-4.007 2.607-6.28 2.607s-4.545-.869-6.28-2.607l-17.765-17.8c-3.469-3.477-3.469-9.109 0-12.585 3.47-3.477 9.091-3.477 12.56 0l11.485 11.507 38.132-38.207c3.47-3.477 9.091-3.477 12.56 0 3.47 3.476 3.47 9.108 0 12.585z" fill="url(#SVGID_2_)"/></g></g></g></svg>