<svg xmlns="http://www.w3.org/2000/svg" xmlns:xlink="http://www.w3.org/1999/xlink" viewBox="0 0 210 210">
    <defs>
        <path id="a" d="M0 0h169.877v169.877H0z"/>
    </defs>
    <g fill="none" fill-rule="evenodd" transform="translate(20 20)">
        <mask id="b" fill="#fff">
            <use xlink:href="#a"/>
        </mask>
        <path fill="#FFFFFF" d="M87.843 116.837c0-5.703 5.082-10.918 11.134-16.97l6.707-6.708c4.45-4.45 13.796-13.8 9.9-22.617-.258-.58.165-.868.558-.388 5.895 7.208 3.89 18.426-7.7 30.016l-9.487 9.467c-5.988 5.987-8.884 8.896-10.38 16.156-.112.543-.732.54-.732 0v-8.956zM66.051 93.874c-6.818 6.817-8.464 14.718-3.042 19.414.453.394.217.875-.375.605-6.762-3.082-12.09-14.277-.5-25.868l23.202-23.182c5.988-5.987 8.885-8.84 10.381-16.1.112-.542.732-.54.732 0v8.897c0 5.702-5.082 10.918-11.134 16.969L66.051 93.874zm-12.273 9.186c-5.895-7.208-3.89-18.425 7.7-30.016L85.362 49.18c5.987-5.988 8.883-8.897 10.38-16.157.111-.542.731-.541.731 0v8.957c0 5.703-5.082 10.918-11.134 16.97L64.235 80.056c-4.45 4.449-13.795 13.799-9.898 22.617.256.58-.166.867-.559.387zm-4.043-15.714c-2.128-6.88-.738-17.424 9.231-27.393l26.366-26.38c5.988-5.986 8.892-8.85 10.388-16.11.112-.543.732-.541.732 0v8.895c0 5.704-5.082 10.918-11.134 16.97l-22.74 22.735c-10.549 10.548-12.21 15.514-12.16 21.294.004.612-.502.573-.683-.011zm54.133-8.005c6.818-6.818 8.465-14.718 3.043-19.415-.453-.393-.218-.874.375-.604 6.761 3.08 12.091 14.276.5 25.868l-8.806 8.785c-5.988 5.987-8.885 8.84-10.38 16.098-.112.543-.733.54-.733 0v-8.894c0-5.703 5.082-10.918 11.134-16.971l4.867-4.867zm16.316 6.528c2.13 6.878.74 17.423-9.23 27.392l-11.97 11.982c-.335.335-.659.658-.974.976h-8.24c2.017-3.466 5.431-6.933 9.23-10.731l8.342-8.336c10.548-10.548 12.21-15.514 12.161-21.294-.005-.612.501-.574.681.01zm-31.588 55.486c-.11.543-.732.54-.732 0v-8.883c0-.201.164-.364.364-.364l4.402-.002c-1.958 2.586-3.21 5.252-4.034 9.249zm57.648-27h1.421l1.634 4.405 1.633-4.404h1.42v5.61h-.994v-4.332h-.07l-1.564 4.333h-.852l-1.562-4.333h-.07v4.333h-.996v-5.611zm-3.267.853h-1.634v-.852h4.333v.852h-1.705v4.759h-.994v-4.76zm-34.842 25.9c-11.452-1.931-17.695 3.519-19.563 8.625-.166.45-.702.382-.702-.048l-.006-1.588c0-5.703 5.082-10.918 11.135-16.971l10-10.007 26.64 4.582s7.61 7.61 14.118 14.123c12.547-14.803 20.12-33.96 20.12-54.885 0-46.911-38.029-84.94-84.939-84.94C38.028 0 0 38.029 0 84.94c0 20.926 7.572 40.082 20.12 54.885 6.507-6.513 14.118-14.123 14.118-14.123l30.24-5.197c14.004-2.438 17.5.713 17.523 5.35a.364.364 0 0 1-.364.364l-8.732-.003a.364.364 0 0 0-.364.364v5.162c0 .2.163.365.364.365h8.74c.2 0 .363.162.363.363v17.216c0 .43-.538.499-.703.048-1.869-5.106-8.112-10.556-19.564-8.625 0 0-19.914 3.442-34.686 5.985 15.17 14.133 35.515 22.784 57.883 22.784 22.37 0 42.714-8.651 57.883-22.784-14.77-2.543-34.686-5.985-34.686-5.985z" mask="url(#b)"/>
    </g>
</svg>
