<?xml version="1.0" encoding="utf-8"?>
<!-- Generator: Adobe Illustrator 22.1.0, SVG Export Plug-In . SVG Version: 6.00 Build 0)  -->
<svg version="1.1" id="Layer_1" xmlns="http://www.w3.org/2000/svg" xmlns:xlink="http://www.w3.org/1999/xlink" x="0px" y="0px"
	 viewBox="0 0 205 202.9" style="enable-background:new 0 0 205 202.9;" xml:space="preserve">
<style type="text/css">
	.st0{fill:#F0DA2D;}
	.st1{fill:#002953;}
	.st2{fill:#FFFFFF;}
	.st3{fill-rule:evenodd;clip-rule:evenodd;fill:#FFFFFF;}
	.st4{fill-rule:evenodd;clip-rule:evenodd;fill:url(#SVGID_1_);}
	.st5{fill-rule:evenodd;clip-rule:evenodd;}
	.st6{fill-rule:evenodd;clip-rule:evenodd;fill:#F0DA2D;}
	.st7{fill-rule:evenodd;clip-rule:evenodd;fill:#F6891F;}
	.st8{fill-rule:evenodd;clip-rule:evenodd;fill:#9C6A11;}
	.st9{fill-rule:evenodd;clip-rule:evenodd;fill:#C0551C;}
	.st10{fill-rule:evenodd;clip-rule:evenodd;fill:#0B0040;}
	.st11{fill-rule:evenodd;clip-rule:evenodd;fill:#0085C4;}
	.st12{fill-rule:evenodd;clip-rule:evenodd;fill:#002953;}
</style>
<g>
	<path class="st3" d="M173,130c4.9-12.5,6.6-26.5,4.7-39.7c-2.4-16.5-9.9-31.5-21.7-43.3c-14.5-14.5-33.8-22.5-54.4-22.5
		s-39.9,8-54.4,22.5C35.3,58.9,27.8,74,25.4,90.5c-1.9,13.2-0.2,27.4,4.9,39.9l-5.4,0.7l5.9,41.6l7-0.9c8.7-1.2,17.8-2.1,26.9-2.8
		c11.2,6.1,24,9.4,36.8,9.4c13,0,25.8-3.3,37.1-9.5c9.9,0.7,19.7,1.7,29.2,3l7,0.9l5.9-41.6L173,130z M174.1,171.6l-6.1-0.8
		c-9.6-1.3-19.5-2.3-29.5-3l-0.1,0l-0.1,0.1c-11.2,6.2-23.9,9.5-36.8,9.5c-12.7,0-25.3-3.2-36.5-9.3L65,168l-0.1,0
		c-9.2,0.7-18.3,1.7-27.1,2.8l-6.1,0.8L26,132l5.7-0.8l-0.2-0.6c-5.1-12.5-6.9-26.7-5-39.9c2.3-16.3,9.8-31.2,21.5-42.9
		c14.3-14.3,33.4-22.2,53.7-22.2s39.3,7.9,53.7,22.2c11.7,11.7,19.1,26.4,21.4,42.7c1.9,13.2,0.2,27.3-4.9,39.8l-0.2,0.6l8.2,1.1
		L174.1,171.6z"/>
	<path class="st3" d="M173.4,132.8c-1.4-0.2-2.8-0.4-4.3-0.6c5.8-12.9,7.9-27.6,5.9-41.6c-2.3-15.9-9.6-30.3-21-41.7
		c-14-14-32.6-21.7-52.5-21.7C81.7,27.3,63.1,35,49.1,49c-11.4,11.4-18.7,25.9-21,41.9c-2,14.1,0.2,28.8,6.1,41.7
		c-0.6,0.1-1.2,0.2-1.8,0.2l-4.5,0.6l5.2,36.3l4.4-0.6c9-1.2,18.4-2.2,27.9-2.9c11,6.2,23.5,9.4,36.2,9.4c0,0,0,0,0,0
		c12.8,0,25.4-3.3,36.5-9.6c10.2,0.7,20.3,1.7,30.2,3.1l4.4,0.6l5.2-36.3L173.4,132.8z M170.3,166.6l-1.7-0.2
		c-10.4-1.4-20.8-2.4-31.2-3.1c-22,12.8-49.4,12.8-71.4,0.2c-9.7,0.7-19.3,1.7-28.9,3l-1.7,0.2L31,135.8l1.7-0.2
		c1.9-0.2,3.7-0.5,5.6-0.7c-14.3-27-10.1-61.2,12.7-83.9c27.9-27.9,73.2-27.9,101.1,0c22.6,22.6,26.9,56.7,12.8,83.6
		c2.7,0.3,5.4,0.7,8.1,1l1.7,0.2L170.3,166.6z"/>
	<path class="st3" d="M47.7,111.1l-5.1,0.6l-0.2-1.5c-0.1-0.9-0.4-1.8-1-2.5c-0.8-0.8-2-0.9-3-0.8c-1.7,0.2-3.4,1.1-3.2,3.3l0.5,4.7
		l12.3-1.4L47.7,111.1z M37.2,112.3l-0.1-1c-0.1-1.3,0-1.9,1.4-2c1.5-0.2,2,0.5,2.1,1.5l0.1,1.2L37.2,112.3z"/>
	<path class="st3" d="M47.2,103.1l-3.1-0.8l0.1-2.7l3.2-0.5l0.1-2.5L35,99l-0.2,3.1l12.2,3.5L47.2,103.1z M42.3,101.9l-3.5-0.9
		c-0.6-0.1-1.1-0.2-1.7-0.3c-0.3,0-0.6-0.1-0.8-0.1l0,0c0.3,0,0.5,0,0.8,0c0.6,0,1.1-0.1,1.7-0.1l3.5-0.5L42.3,101.9z"/>
	<path class="st3" d="M48.2,93.1l-5.2-1.2l0.1-0.4c0.1-0.6,0.3-1.3,0.6-1.9c0.4-0.7,1.4-0.5,2.1-0.3c0.8,0.2,2.3,0.6,3.1,0.5
		l0.6-2.5l-0.2-0.1c-0.5,0.5-3.4-0.3-3.9-0.4c-1.2-0.3-2.1-0.1-2.6,1.2l0,0c0.1-1.6-1.2-2.2-2.5-2.5c-2.2-0.5-3.2,0.8-3.7,2.7
		l-1,4.2l12,2.8L48.2,93.1z M41.7,89.7l-0.4,1.8L38,90.7l0.4-1.7c0.2-0.8,0.6-1.4,1.9-1C41.5,88.3,41.8,89,41.7,89.7z"/>
	<polygon class="st3" points="52.8,79.4 51.1,78.7 49.5,82.6 46,81.1 47.5,77.5 45.8,76.8 44.3,80.4 41.5,79.2 43.1,75.3 41.4,74.6 
		38.9,80.6 50.3,85.4 	"/>
	<path class="st3" d="M53.6,75c-0.3,0.5-0.7,0.4-1.1,0.2l-1.3-0.8l-1.2,2c0.9,0.6,2.2,1.3,2.7,1.2c1.1,0,1.9-0.7,2.3-1.4
		c0.6-1,1-1.9,0.8-2.8c-0.3-1-1.4-1.6-2.1-2L46,66.7l-1.2,2l8.1,4.9C53.5,73.9,54,74.3,53.6,75z"/>
	<path class="st3" d="M58.8,70l-2-2.5l1.7-2.1l2.8,1.6l1.6-1.9l-11.2-5.8l-2,2.4l7.5,10.2L58.8,70z M53.5,63.3
		c-0.4-0.5-0.8-0.9-1.2-1.3c-0.2-0.2-0.4-0.4-0.6-0.6l0,0c0.2,0.1,0.5,0.3,0.7,0.5c0.5,0.3,0.9,0.6,1.5,0.9l3.1,1.8l-1.3,1.5
		L53.5,63.3z"/>
	<path class="st3" d="M59.5,58.2c1.5,0.3,3.1-0.1,4.6-0.2c0.7-0.1,1.3,0.1,1.8,0.7c0.6,0.7,0.6,1.4-0.2,2C64.9,61.4,64,61,63.3,60
		l-0.5-0.6L61,61l0.6,0.7c1.4,1.7,3.2,2.2,5.3,0.5c1.7-1.4,2.1-3.4,0.6-5.2c-0.7-0.8-1.4-1.2-2.5-1.3c-0.9-0.1-2.6,0.1-3.4,0.2
		c-0.9,0.1-1.5,0.2-2.1-0.5c-0.5-0.6-0.4-1.2,0.2-1.7c1-0.8,1.7,0,2.4,0.8l1.7-1.4c-0.8-0.9-2.5-3.2-5.4-0.8c-1.9,1.6-2,3.2-0.7,4.8
		C58.3,57.6,58.9,58,59.5,58.2z"/>
	<path class="st3" d="M79.2,54c0.5-0.2,1.1-0.5,1.4-1c1.2-1.8,0.1-4.3-1-6.6c-0.9-1.8-1.6-3-2.4-3.6c-1.1-0.7-2.2-0.5-2.8-0.3
		l-4.4,2l5.2,11.2L79.2,54z M74.4,44.6c1.3-0.6,2,0.3,3.2,3c1.5,3.2,1.9,4.3,0,5.1l-0.9,0.4L73,45.3L74.4,44.6z"/>
	<rect x="83" y="39.3" transform="matrix(0.9559 -0.2938 0.2938 0.9559 -9.6603 26.727)" class="st3" width="2.3" height="12.3"/>
	<path class="st3" d="M88.6,42.9c1.1,1.1,2.7,1.5,4.1,2.2c0.7,0.3,1.1,0.7,1.2,1.5c0.2,0.9-0.2,1.5-1.2,1.7
		c-1.1,0.2-1.6-0.6-1.8-1.8l-0.1-0.7l-2.3,0.4l0.2,0.9c0.4,2.2,1.6,3.5,4.3,3.1c2.2-0.4,3.5-1.8,3.2-4.1c-0.2-1.1-0.5-1.7-1.5-2.4
		C94,43,92.4,42.4,91.6,42c-0.8-0.3-1.4-0.6-1.6-1.5c-0.1-0.8,0.3-1.2,1.1-1.3c1.2-0.2,1.5,0.8,1.7,1.9l2.2-0.4
		c-0.2-1.2-0.6-4-4.2-3.4c-2.4,0.4-3.4,1.7-3,3.8C87.8,41.8,88.2,42.4,88.6,42.9z"/>
	<path class="st3" d="M102.7,49.3c2.6,0,3.3-1.7,3.5-4c0-0.2,0-0.5,0.1-0.7l-2.3,0c-0.1,0.8,0.1,2.8-1.2,2.8c-1.6,0-1.7-1.7-1.6-2.7
		l0-3.4c0-1-0.1-3.1,1.7-3.1c1.1,0,1,1.5,1.1,2.3l2.3,0c0-0.3,0-0.6,0-0.9c-0.2-2.1-1.3-3.2-3.4-3.2c-3.7,0-3.9,2.3-4.1,5.5l0,1.8
		C98.6,46.9,98.9,49.3,102.7,49.3z"/>
	
		<rect x="104.1" y="42.3" transform="matrix(0.1375 -0.9905 0.9905 0.1375 52.1462 146.7202)" class="st3" width="12.3" height="2.3"/>
	<path class="st3" d="M116.8,45.7l1.5,0.4c0.9,0.3,1.8,0.3,2.7,0c1-0.4,1.6-1.5,1.9-2.5c0.5-1.7,0.3-3.6-1.9-4.1l-4.5-1.2l-3.3,11.9
		l2.2,0.6L116.8,45.7z M118.2,40.5l1,0.3c1.3,0.3,1.7,0.7,1.4,2.1c-0.4,1.4-1.2,1.7-2.1,1.4l-1.2-0.3L118.2,40.5z"/>
	<path class="st3" d="M125.6,54.7c2.7,1.3,4.1,0.5,5.3-2l3.7-7.8l-2.1-1l-3.6,7.6c-0.5,1.1-1.1,2.1-2.4,1.5c-1.4-0.7-1-1.8-0.5-2.8
		l3.6-7.6l-2.1-1l-3.7,7.8C122.6,51.8,122.9,53.4,125.6,54.7z"/>
	<polygon class="st3" points="136.7,61.2 137.7,59.7 134.2,57.3 140.3,48.7 138.5,47.3 131.3,57.4 	"/>
	<path class="st3" d="M139.2,63.5l2.6-1.8l1.9,1.9l-1.8,2.6l1.7,1.7l6.7-10.7l-2.2-2.2l-10.8,6.7L139.2,63.5z M146.3,58.7
		c0.5-0.3,0.9-0.7,1.4-1.1c0.2-0.2,0.4-0.4,0.6-0.5l0,0c-0.2,0.2-0.3,0.4-0.5,0.6c-0.4,0.5-0.7,0.9-1,1.4l-2,2.9l-1.4-1.4
		L146.3,58.7z"/>
	<path class="st3" d="M147.1,72.7c0.3,0.5,0.7,1,1.3,1.2c2,0.9,4.3-0.7,6.3-2.1c1.7-1.2,2.7-2.1,3.1-3c0.5-1.2,0.1-2.3-0.2-2.8
		l-2.8-3.9l-10.1,7.1L147.1,72.7z M154.7,65.1l0.9,1.2c0.8,1.1,0,2-2.4,3.7c-2.9,2-3.9,2.6-5.1,0.9l-0.6-0.8L154.7,65.1z"/>
	<path class="st3" d="M155.2,75.4c-3,1.4-5.1,2.6-3.5,6c1.6,3.4,3.8,2.7,6.8,1.3l1.6-0.7c2.8-1.4,4.9-2.6,3.3-5.9
		c-1.5-3.4-3.7-2.6-6.7-1.4L155.2,75.4z M161.8,76.9c0.7,1.6-1.3,2.4-2.2,2.8l-2.9,1.3c-1.1,0.5-2.6,1.2-3.3-0.3
		c-0.6-1.4,0.8-2.2,1.8-2.6l3.1-1.4C159.1,76.2,161.1,75.2,161.8,76.9z"/>
	<path class="st3" d="M154.9,89.4l5.2-1.3l0.1,0.4c0.2,0.6,0.3,1.3,0.3,1.9c0,0.8-1,1.1-1.8,1.2c-0.8,0.2-2.3,0.5-3,1l0.6,2.5
		l0.2-0.1c0.2-0.6,3.2-1.3,3.7-1.4c1.2-0.3,1.9-0.9,1.8-2.3l0,0c0.6,1.5,2,1.5,3.3,1.1c2.2-0.5,2.5-2.2,2.1-4.1l-1-4.2l-12,2.9
		L154.9,89.4z M165.1,86.9l0.4,1.7c0.2,0.9,0.1,1.5-1.2,1.8c-1.2,0.3-1.8-0.2-2-0.9l-0.4-1.8L165.1,86.9z"/>
	<path class="st3" d="M156.6,98.7l3.2,0.4l0.2,2.7l-3.1,0.8l0.1,2.5l12.2-3.5l-0.2-3.1l-12.5-2.2L156.6,98.7z M165.1,99.9
		c0.6,0.1,1.1,0.1,1.7,0.1c0.3,0,0.6,0,0.8,0l0,0c-0.3,0-0.5,0.1-0.8,0.1c-0.6,0.1-1.1,0.2-1.7,0.3l-3.5,0.8l-0.1-2L165.1,99.9z"/>
	<path class="st3" d="M166.2,107.4c-0.7-0.1-1.3,0.1-1.9,0.4c-1.3,0.8-2.2,2.2-3.2,3.3c-0.5,0.5-1,0.8-1.7,0.7
		c-0.9-0.1-1.4-0.6-1.3-1.6c0.1-1.1,1-1.4,2.2-1.2l0.7,0.1l0.3-2.3l-0.9-0.1c-2.2-0.3-3.8,0.6-4.2,3.3c-0.3,2.2,0.8,3.9,3.1,4.2
		c1.1,0.1,1.8,0,2.7-0.7c0.7-0.6,1.8-1.9,2.3-2.5c0.5-0.7,1-1.2,1.9-1.1c0.8,0.1,1.1,0.6,1,1.4c-0.1,1.3-1.2,1.2-2.3,1.1l-0.3,2.2
		c1.2,0.1,4,0.5,4.4-3.1C169.3,108.9,168.3,107.6,166.2,107.4z"/>
	<path class="st3" d="M81.2,165.1c-0.1-0.2-0.2-0.3-0.3-0.4c-0.1-0.1-0.3-0.2-0.5-0.2c-0.2,0-0.4-0.1-0.6-0.1h-1.5v4h0.9v-1.6h0.6
		c0.5,0,0.8-0.1,1.1-0.3c0.3-0.2,0.4-0.5,0.4-0.9C81.3,165.5,81.3,165.3,81.2,165.1z M80.4,165.9c0,0.1-0.1,0.1-0.1,0.1
		s-0.1,0.1-0.2,0.1c-0.1,0-0.2,0-0.2,0h-0.5v-1h0.5c0.2,0,0.4,0,0.5,0.1c0,0,0.1,0.1,0.1,0.1c0,0.1,0,0.1,0,0.2
		S80.4,165.9,80.4,165.9z"/>
	<path class="st3" d="M82.4,164.5l-1.2,4h0.9l0.2-0.8h1.1l0.2,0.8h0.9l-1.1-4H82.4z M82.5,166.9l0.4-1.4l0.4,1.4H82.5z"/>
	<path class="st3" d="M87.6,166.3c0.1-0.2,0.2-0.4,0.2-0.6c0-0.2,0-0.4-0.1-0.5c-0.1-0.2-0.1-0.3-0.3-0.4c-0.1-0.1-0.2-0.2-0.4-0.2
		c-0.2-0.1-0.3-0.1-0.5-0.1h-1.6v4h0.9v-1.6h0.5l0.7,1.6h1l-0.9-1.8C87.3,166.6,87.5,166.5,87.6,166.3z M86.9,165.9
		c0,0.1-0.1,0.1-0.2,0.1s-0.1,0.1-0.2,0.1s-0.2,0-0.2,0h-0.5v-1h0.6c0.2,0,0.4,0,0.5,0.1c0,0,0.1,0.1,0.1,0.2c0,0.1,0,0.1,0,0.2
		C86.9,165.8,86.9,165.9,86.9,165.9z"/>
	<path class="st3" d="M89.3,164.5l-1.2,4H89l0.2-0.8h1.1l0.2,0.8h0.9l-1.1-4H89.3z M89.4,166.9l0.4-1.4l0.4,1.4H89.4z"/>
	<path class="st3" d="M98.5,165.3c-0.4-0.3-0.8-0.5-1.3-0.7c-0.3-0.1-0.7-0.3-0.9-0.4c-0.1-0.1-0.2-0.2-0.3-0.2
		c-0.1-0.1-0.1-0.2-0.1-0.2c0-0.1,0-0.2,0.1-0.3c0-0.1,0.1-0.1,0.2-0.2c0.1,0,0.2-0.1,0.3-0.1c0.1,0,0.2,0,0.3,0
		c0.3,0,0.5,0.1,0.7,0.2c0.2,0.2,0.3,0.4,0.4,0.6l1.3-0.4c-0.1-0.3-0.3-0.5-0.4-0.7c-0.2-0.2-0.3-0.3-0.5-0.5
		c-0.4-0.2-0.9-0.4-1.4-0.4c-0.6,0-1.1,0.2-1.5,0.5s-0.6,0.8-0.6,1.3c0,0.5,0.2,0.9,0.5,1.2c0.3,0.3,0.8,0.5,1.5,0.8
		c0.3,0.1,0.6,0.3,0.9,0.4c0.2,0.1,0.3,0.3,0.3,0.5c0,0.1,0,0.3-0.1,0.4s-0.1,0.2-0.2,0.2c-0.1,0.1-0.2,0.1-0.3,0.1
		c-0.1,0-0.2,0-0.4,0c-0.2,0-0.3,0-0.5-0.1s-0.3-0.1-0.4-0.2c-0.1-0.1-0.2-0.2-0.3-0.3c-0.1-0.1-0.2-0.3-0.2-0.4l-1.1,0.5
		c0.1,0.3,0.3,0.6,0.5,0.8c0.2,0.2,0.4,0.4,0.6,0.5c0.4,0.2,0.9,0.4,1.4,0.4c0.7,0,1.3-0.2,1.7-0.5c0.4-0.3,0.6-0.8,0.6-1.5
		C99.1,166,98.9,165.6,98.5,165.3z"/>
	<path class="st3" d="M101.4,162.1l-1.9,6.4h1.4l0.4-1.3h1.8l0.3,1.3h1.4l-1.8-6.4H101.4z M101.6,166l0.6-2.3l0.6,2.3H101.6z"/>
	<polygon class="st3" points="106.9,162.1 105.6,162.1 105.6,168.5 109.6,168.5 109.6,167.3 106.9,167.3 	"/>
	<polygon class="st3" points="112.8,162.1 111.8,166.4 110.7,162.1 109.4,162.1 111.1,168.5 112.5,168.5 114.2,162.1 	"/>
	<path class="st3" d="M115.5,162.1l-1.9,6.4h1.4l0.4-1.3h1.8l0.3,1.3h1.4l-1.8-6.4H115.5z M115.7,166l0.6-2.3l0.6,2.3H115.7z"/>
	<path class="st3" d="M124,165.1c0.2-0.3,0.3-0.6,0.3-1c0-0.3-0.1-0.6-0.2-0.9s-0.2-0.5-0.4-0.6c-0.2-0.2-0.4-0.3-0.7-0.4
		s-0.5-0.1-0.9-0.1h-2.6v6.4h1.4V166h0.9l1.2,2.5h1.5l-1.4-2.8C123.5,165.5,123.8,165.3,124,165.1z M122.8,164.5
		c-0.1,0.1-0.1,0.2-0.2,0.2c-0.1,0-0.2,0.1-0.4,0.1c-0.1,0-0.3,0-0.4,0H121v-1.5h1c0.3,0,0.6,0.1,0.7,0.2c0.1,0.1,0.1,0.1,0.2,0.2
		c0,0.1,0.1,0.2,0.1,0.4C122.9,164.2,122.9,164.4,122.8,164.5z"/>
	<path class="st3" d="M118.6,148c1.2,0,1.8,0.1,3,0.1c-0.5-2.4-0.7-3.5-1.3-5.9C119.6,144.5,119.3,145.7,118.6,148z"/>
	<path class="st3" d="M136.5,143.2c-0.6-0.9-1.5-1.4-2.9-1.5c-0.7,0-1.1-0.1-1.8-0.1c-0.2,4.2-0.4,6.3-0.6,10.4
		c0.7,0,1.1,0.1,1.8,0.1c0.8,0,1.4,0,2-0.3c0.5-0.2,1-0.6,1.3-1.1c0.3-0.5,0.6-1,0.7-1.6c0.2-0.6,0.3-1.3,0.3-2
		c0.1-0.9,0-1.6-0.1-2.3C137,144.2,136.8,143.6,136.5,143.2z"/>
	<path class="st3" d="M152.2,102.8c0-27.9-22.6-50.5-50.5-50.5c-27.9,0-50.5,22.6-50.5,50.5c0,11.9,4.1,22.8,11,31.4
		c-9.8,0.8-19.5,1.8-29.3,3.1c1.3,9.1,2.6,18.3,3.9,27.4c44.1-5.8,87.9-5.8,132,0c1.3-9.1,2.6-18.3,3.9-27.4
		c-10.5-1.4-20.9-2.5-31.4-3.2C148.2,125.4,152.2,114.6,152.2,102.8z M50.7,154.8c-0.3,0.6-0.7,1.1-1.2,1.5
		c-0.9,0.8-2.1,1.3-3.6,1.5c-1.2,0.1-2.2,0-3.1-0.3c-0.9-0.4-1.6-0.9-2.2-1.6s-1.1-1.6-1.4-2.5c-0.4-1-0.6-2-0.7-3.1
		c-0.1-1.1-0.2-2.1-0.1-3.2c0.1-1,0.3-2,0.7-2.8c0.4-0.8,1-1.6,1.8-2.1c0.8-0.6,1.8-0.9,3-1.1c1.3-0.2,2.5,0,3.6,0.5
		c0.5,0.2,1,0.6,1.5,1.2c0.4,0.5,0.8,1.3,1.2,2.2c-1.2,0.4-1.8,0.7-3.1,1.1c-0.3-0.6-0.7-1.2-1.1-1.6c-0.5-0.4-1.1-0.5-1.8-0.5
		c-0.4,0.1-0.8,0.2-1.1,0.4c-0.3,0.2-0.5,0.5-0.7,0.8c-0.2,0.3-0.3,0.7-0.4,1.1s-0.1,0.8-0.2,1.2c0,0.4,0,0.8,0,1.2
		c0,0.4,0.1,0.8,0.1,1.1c0.2,1.8,0.7,3.1,1.3,3.9c0.6,0.8,1.4,1.2,2.4,1c0.4,0,0.8-0.1,1-0.3c0.3-0.2,0.5-0.3,0.7-0.6
		c0.2-0.2,0.4-0.5,0.5-0.8c0.1-0.3,0.3-0.7,0.4-1c1.3,0.2,2,0.3,3.3,0.5C51.3,153.5,51,154.2,50.7,154.8z M63.9,153.7
		c-1,1.6-2.6,2.5-4.8,2.7c-1.2,0.1-2.3,0-3.2-0.4c-0.9-0.4-1.6-0.9-2.2-1.6c-0.6-0.7-1.1-1.6-1.4-2.6c-0.3-1-0.6-2.1-0.7-3.2
		c-0.1-1.1-0.1-2.2,0-3.3c0.1-1,0.4-2,0.9-2.8c0.5-0.8,1.1-1.5,1.9-2c0.8-0.5,1.9-0.9,3.1-1c1.3-0.1,2.4,0,3.3,0.4
		c0.9,0.4,1.7,0.9,2.3,1.7c0.6,0.7,1.1,1.6,1.4,2.6c0.3,1,0.5,2.1,0.6,3.2C65.3,150.1,64.9,152.2,63.9,153.7z M77.2,81.3
		c0.7-0.4,1.6-0.7,2.5-0.7c2.8,0,5.1,2.3,5.1,5.1c0,2.1-1.3,4-3.2,4.7c-0.7,0.4-1.6,0.7-2.5,0.7c-2.8,0-5.1-2.3-5.1-5.1
		C74,83.9,75.3,82,77.2,81.3z M78.7,92.3c0.4-0.2,0.8-0.4,1.1-0.6c2-0.9,4.2-1.3,6.5-1.1c3.2,0.3,5,1.1,6.8,2.4l0,0
		c0,0,0.1,0.1,0.1,0.1c0.2,0.1,0.4,0.3,0.5,0.4c0,0,0.1,0.1,0.1,0.1c0.2,0.2,0.4,0.4,0.7,0.6c0.1,0.1,0.1,0.1,0.2,0.2
		c0.2,0.2,0.4,0.3,0.6,0.5c0.3,0.3,0.6,0.5,0.9,0.8l5,4.5c-0.4-8.6-1-17.3-1.7-25.7c-5.4,1-10.8,2.3-16.2,3.9
		c-0.6-2.9-1.1-5.9-1.7-8.8c0.4,0,0.8,0,1.2-0.1c-0.1-0.4-0.2-0.8-0.2-1.2c5.5-0.4,10.9-0.6,16.3-0.6c-0.4-3.6-0.8-7.1-1.2-10.7
		c0.4,0,0.7-0.1,1.1-0.1c0-0.4-0.1-0.7-0.1-1.1c3-0.4,5.6-0.7,8.5-1.1c-0.1,4.5-0.2,8.8-0.4,13.1c7.7,0.2,15.2,0.9,22.5,2
		c-2.1,0.1-4.3,0.3-6.4,0.5c1.9,0.2,3.7,0.5,5.5,0.8c-7.3,0.5-14.5,1.2-21.8,2.3c-0.3,8.1-0.8,16.1-1.3,23.8l1.2-1.1
		c2.1-1.9,3.4-3.2,5.3-4.1c1.4-0.7,2.9-1.2,5.2-1.4c2.3-0.2,4.5,0.1,6.5,1c5.9,2.5,10.1,9.1,9.1,15.5c-0.4,3.1-2,5.8-4.2,8.2
		L115,128.7c0.2-0.7,0.3-1.3,0.4-2c0-0.2,0.1-0.5,0.2-0.7c-0.2,0-0.6,0-0.8-0.1c-0.8-0.1-1.6-0.1-2.4-0.2c-0.8,0-1.5-0.1-2.4-0.1
		c-0.1,0-0.5,0-0.6,0c0,0.1,0,0.3,0,0.4c-0.1,2-0.3,3.9-0.4,6c-2.9-0.5-6-0.9-9.1-1.2c-0.2,0-0.3,0-0.5,0c0,0.6,0,1.2,0.1,1.7
		c-2.7,0-5.3,0.1-8,0.1l-17-16.8c-2.2-2.4-3.8-5-4.3-8.1C69.2,101.5,73.1,95.1,78.7,92.3z M128.5,85.5c0,2.1-1.3,4-3.2,4.7
		c-0.7,0.4-1.6,0.7-2.5,0.7c-2.8,0-5.1-2.3-5.1-5.1c0-2.1,1.3-4,3.2-4.7c0.7-0.4,1.6-0.7,2.5-0.7C126.2,80.4,128.5,82.7,128.5,85.5z
		 M76.8,154.9c-2.6-4.2-4-6.3-6.7-10.4c0.3,4.3,0.4,6.5,0.7,10.8c-1.3,0.1-1.9,0.1-3.2,0.2c-0.5-6.6-0.7-9.9-1.2-16.4
		c1.4-0.1,2.1-0.2,3.5-0.2c2.6,4,3.9,6,6.5,9.9c-0.2-4.1-0.3-6.2-0.6-10.3c1.3-0.1,2-0.1,3.3-0.2c0.3,6.6,0.5,9.9,0.8,16.5
		C78.7,154.8,78,154.8,76.8,154.9z M82.2,154.6c-0.3-6.6-0.4-9.9-0.7-16.5c4.4-0.2,6.6-0.3,10.9-0.4c0,1.2,0,1.8,0.1,3
		c-3,0.1-4.4,0.1-7.4,0.2c0,1.3,0.1,2,0.1,3.4c2.1-0.1,3.2-0.1,5.4-0.2c0,1.2,0,1.8,0.1,3c-2.1,0.1-3.2,0.1-5.3,0.2
		c0.1,1.6,0.1,2.4,0.1,4.1c3-0.1,4.5-0.2,7.5-0.2c0,1.2,0,1.8,0.1,3C88.7,154.4,86.5,154.5,82.2,154.6z M104,153.3
		c-1,0.7-2.2,1.1-3.7,1.1c-1.2,0-2.2-0.2-3-0.7c-0.8-0.5-1.5-1.1-2-1.9c-0.5-0.8-0.9-1.7-1.1-2.7c-0.2-1-0.4-2.1-0.4-3.1
		c0-1.1,0.1-2.1,0.3-3.2c0.2-1,0.6-1.9,1.1-2.7c0.5-0.8,1.2-1.4,2-1.9c0.8-0.5,1.9-0.7,3.1-0.7c1.3,0,2.5,0.3,3.5,0.9
		c0.5,0.3,1,0.8,1.3,1.3s0.7,1.4,1,2.3c-1.3,0.3-1.9,0.5-3.2,0.8c-0.2-0.7-0.6-1.2-1-1.7c-0.4-0.4-1-0.7-1.7-0.7
		c-0.4,0-0.8,0.1-1.1,0.3c-0.3,0.2-0.6,0.4-0.8,0.7c-0.2,0.3-0.4,0.7-0.5,1c-0.1,0.4-0.2,0.8-0.3,1.2c-0.1,0.4-0.1,0.8-0.1,1.2
		c0,0.4,0,0.8,0,1.1c0,1.8,0.3,3.1,0.8,4c0.5,0.9,1.2,1.3,2.3,1.3c0.4,0,0.8-0.1,1.1-0.2c0.3-0.1,0.5-0.3,0.8-0.5
		c0.2-0.2,0.4-0.5,0.6-0.8c0.2-0.3,0.3-0.6,0.5-1c1.3,0.3,1.9,0.5,3.2,0.9c-0.3,0.8-0.7,1.5-1,2.1C105,152.5,104.5,153,104,153.3z
		 M107.2,159.4c-0.5,0.3-0.7,0.5-1.1,0.9c1-8,2.1-15.9,2.9-23.9c-3,0-5.9,0.2-8.7,0.6c-0.2,0-0.2,0-0.4,0c-0.1-2.3-0.1-3.4-0.1-5.7
		c0.2,0,0.2,0,0.4,0c3.2,0.3,6.2,0.7,9.1,1.2c0.2-2.1,0.3-4.2,0.4-6.2c0-0.1,0-0.2,0-0.4c0.1,0,0.2,0,0.4,0c0.8,0.1,1.6,0.1,2.4,0.1
		c0.8,0,1.6,0.1,2.4,0.2c0.2,0,0.3,0,0.4,0c0,0.2-0.1,0.2-0.1,0.4c-0.5,2.2-1,4.5-1.5,6.7c4.1,0.9,8,2.1,11.6,3.5
		c1.2,0.5,1.8,0.7,3,1.2c-1.3-0.2-1.9-0.3-3.2-0.5c-4.3-0.7-8.3-1.1-12.1-1.2C111.1,144,109.1,151.7,107.2,159.4z M122.9,154.6
		c-0.3-1.4-0.4-2.1-0.7-3.5c-1.8-0.1-2.7-0.1-4.5-0.2c-0.4,1.4-0.6,2.1-1,3.4c-1.4,0-2-0.1-3.4-0.1c2-6.6,3-9.8,5.1-16.4
		c1.7,0.1,2.5,0.1,4.1,0.1c1.6,6.7,2.4,10,3.8,16.7C125,154.7,124.3,154.7,122.9,154.6z M140.7,147.5c-0.1,1.3-0.3,2.5-0.7,3.4
		c-0.4,1-0.9,1.8-1.6,2.5c-1.3,1.3-3.2,1.9-5.5,1.8c-2.1-0.1-3.1-0.2-5.2-0.3c0.3-6.6,0.5-9.9,0.9-16.5c2.1,0.1,3.2,0.2,5.3,0.3
		c1.3,0.1,2.4,0.4,3.3,0.8c0.9,0.5,1.6,1.1,2.2,1.8s0.9,1.7,1.1,2.7C140.7,145.1,140.8,146.2,140.7,147.5z M163.1,152.1
		c-0.5-0.5-1.2-0.9-2-1.4c-1.6-0.8-2.8-1.7-3.5-2.4c-0.8-0.8-1.1-1.9-0.9-3.2c0.1-1.3,0.8-2.3,1.9-3.1c1.1-0.7,2.4-1,4-0.8
		c1.3,0.2,2.4,0.6,3.3,1.4c0.5,0.4,0.9,0.8,1.2,1.4c0.3,0.5,0.6,1.2,0.8,2c-1.3,0.2-2,0.3-3.3,0.6c-0.2-0.7-0.4-1.2-0.8-1.7
		c-0.3-0.4-0.9-0.7-1.6-0.8c-0.2,0-0.5,0-0.7,0c-0.2,0-0.5,0.1-0.7,0.2c-0.2,0.1-0.4,0.2-0.5,0.4c-0.1,0.2-0.2,0.4-0.3,0.7
		c0,0.2,0,0.4,0.1,0.7c0.1,0.2,0.3,0.4,0.6,0.7c0.6,0.5,1.4,0.9,2.2,1.3c1.2,0.6,2.2,1.3,3,2.2c0.9,0.9,1.3,2.1,1.1,3.6
		c-0.2,1.6-0.9,2.8-2,3.5c-1.1,0.7-2.5,1-4.3,0.7c-1.1-0.1-2.2-0.6-3.2-1.3c-0.5-0.4-1-0.9-1.4-1.4c-0.4-0.6-0.7-1.2-0.9-2.1
		c1.2-0.4,1.8-0.6,3-1c0.1,0.4,0.3,0.8,0.4,1.1c0.2,0.3,0.4,0.6,0.6,0.9c0.2,0.3,0.5,0.5,0.8,0.6c0.3,0.2,0.7,0.3,1.1,0.3
		c0.3,0,0.6,0,0.9,0c0.3,0,0.6-0.1,0.8-0.2c0.2-0.1,0.4-0.3,0.6-0.5c0.2-0.2,0.3-0.5,0.3-0.9C163.8,153,163.6,152.5,163.1,152.1z
		 M142,144.3c0.3-1,0.8-1.9,1.4-2.6s1.4-1.3,2.3-1.7c0.9-0.4,2-0.5,3.3-0.4s2.3,0.4,3.1,1c0.8,0.5,1.5,1.2,1.9,2
		c0.5,0.8,0.8,1.8,0.9,2.8c0.1,1,0.1,2.1,0,3.3c-0.3,2.7-1.1,4.6-2.4,6c-1.3,1.4-3,2-5.2,1.8c-1.2-0.1-2.2-0.4-3-1
		c-0.8-0.5-1.4-1.2-1.9-2c-0.5-0.8-0.8-1.7-0.9-2.8c-0.2-1-0.2-2.1-0.1-3.3C141.4,146.3,141.6,145.3,142,144.3z"/>
	<path class="st3" d="M60.5,143.7c-0.6-0.8-1.5-1.2-2.6-1.1c-1.2,0.1-2,0.6-2.4,1.6c-0.5,1-0.6,2.4-0.4,4.2c0.2,1.8,0.6,3.1,1.2,4
		c0.6,0.8,1.5,1.2,2.6,1.1c1.1-0.1,1.9-0.6,2.4-1.6c0.5-1,0.6-2.4,0.5-4.2C61.5,145.9,61.1,144.6,60.5,143.7z"/>
	<path class="st3" d="M147.6,153.5c1.1,0.1,2-0.3,2.6-1.1c0.6-0.9,1-2.2,1.2-4c0.2-1.8,0-3.2-0.4-4.2c-0.4-0.9-1.2-1.5-2.4-1.6
		c-1.2-0.1-2.1,0.3-2.7,1.1c-0.6,0.9-1,2.2-1.2,4c-0.2,1.8,0,3.2,0.5,4.2C145.7,152.9,146.5,153.4,147.6,153.5z"/>
	<path class="st3" d="M81.2,102.1c0.2,2.3,1,4.2,2.6,5.8l17.9,17.1l0.3-0.3c0-2.7-0.1-5.4-0.1-8l-0.1,0.1l-0.2-0.1l-0.5,0.5
		l-13.5-12.9c-1.5-1.5-2.3-2.6-4.5-3c-0.6-0.1-1.3-0.1-2-0.1c0,0.2,0,0.5,0,0.7C81.1,101.9,81.2,102,81.2,102.1z"/>
	<path class="st3" d="M121.5,101c-1-0.1-1.8-0.1-2.6,0c-0.5,0.1-0.9,0.2-1.3,0.4c-0.9,0.6-1.6,1.4-2.6,2.3l-11.2,11
		c-0.3,3.1-0.6,6.1-0.9,9l16-15.6C120.8,106.2,121.6,103.9,121.5,101z"/>
</g>
</svg>
