<?xml version="1.0" encoding="utf-8"?>
<!-- Generator: Adobe Illustrator 22.1.0, SVG Export Plug-In . SVG Version: 6.00 Build 0)  -->
<svg version="1.1" id="Layer_1" xmlns="http://www.w3.org/2000/svg" xmlns:xlink="http://www.w3.org/1999/xlink" x="0px" y="0px"
	 viewBox="0 0 205 202.9" style="enable-background:new 0 0 205 202.9;" xml:space="preserve">
<style type="text/css">
	.st0{fill:#F0DA2D;}
	.st1{fill:#002953;}
	.st2{fill:#FFFFFF;}
	.st3{fill-rule:evenodd;clip-rule:evenodd;fill:#FFFFFF;}
	.st4{fill-rule:evenodd;clip-rule:evenodd;fill:url(#SVGID_1_);}
	.st5{fill-rule:evenodd;clip-rule:evenodd;}
	.st6{fill-rule:evenodd;clip-rule:evenodd;fill:#F0DA2D;}
	.st7{fill-rule:evenodd;clip-rule:evenodd;fill:#F6891F;}
	.st8{fill-rule:evenodd;clip-rule:evenodd;fill:#9C6A11;}
	.st9{fill-rule:evenodd;clip-rule:evenodd;fill:#C0551C;}
	.st10{fill-rule:evenodd;clip-rule:evenodd;fill:#0B0040;}
	.st11{fill-rule:evenodd;clip-rule:evenodd;fill:#0085C4;}
	.st12{fill-rule:evenodd;clip-rule:evenodd;fill:#002953;}
</style>
<g>
	<path class="st0" d="M101.6,178.4c-12.9,0-25.6-3.2-36.8-9.4c-9.1,0.7-18.2,1.6-26.9,2.8l-7,0.9l-5.9-41.6l5.4-0.7
		c-5-12.5-6.8-26.6-4.9-39.9c2.4-16.6,9.9-31.6,21.8-43.4C61.7,32.5,81,24.5,101.5,24.5s39.9,8,54.4,22.5
		c11.8,11.8,19.3,26.8,21.7,43.3c1.9,13.2,0.2,27.2-4.7,39.7l7.9,1.1l-5.9,41.6l-7-0.9c-9.5-1.3-19.4-2.3-29.2-3
		C127.4,175.1,114.5,178.4,101.6,178.4z M65,168l0.1,0.1c11.1,6.1,23.7,9.3,36.5,9.3c12.9,0,25.6-3.3,36.8-9.5l0.1-0.1l0.1,0
		c9.9,0.7,19.8,1.7,29.5,3l6.1,0.8l5.6-39.7l-8.2-1.1l0.2-0.6c5.1-12.5,6.8-26.6,4.9-39.8c-2.4-16.3-9.8-31-21.4-42.7
		c-14.3-14.3-33.4-22.2-53.7-22.2s-39.3,7.9-53.7,22.2C36.2,59.5,28.7,74.3,26.4,90.7c-1.9,13.3-0.1,27.5,5,39.9l0.2,0.6L26,132
		l5.6,39.7l6.1-0.8c8.8-1.2,17.9-2.1,27.1-2.8L65,168z"/>
</g>
<path class="st1" d="M173.4,132.8c-1.4-0.2-2.8-0.4-4.3-0.6c5.8-12.9,7.9-27.6,5.9-41.6c-2.3-15.9-9.6-30.3-21-41.7
	c-14-14-32.6-21.7-52.5-21.7S63.1,35,49.1,49c-11.4,11.4-18.7,25.9-21,41.9c-2,14.1,0.2,28.8,6.1,41.7c-0.6,0.1-1.2,0.2-1.8,0.2
	l-4.5,0.6l5.2,36.3l4.4-0.6c9-1.2,18.4-2.2,27.9-2.9c11,6.2,23.5,9.4,36.2,9.4c0,0,0,0,0,0c12.8,0,25.4-3.3,36.5-9.6
	c10.2,0.7,20.3,1.7,30.2,3.1l4.4,0.6l5.2-36.3L173.4,132.8z"/>
<path class="st2" d="M173,135.6c-46.5-6.2-93.7-6.2-140.3,0l-1.7,0.2l4.4,30.8l1.7-0.2c43.6-5.8,87.9-5.8,131.6,0l1.7,0.2l4.4-30.8
	L173,135.6z"/>
<circle class="st3" cx="101.5" cy="101.5" r="71.5"/>
<radialGradient id="SVGID_1_" cx="101.7641" cy="102.8056" r="50.4628" gradientUnits="userSpaceOnUse">
	<stop  offset="0" style="stop-color:#00AEEF"/>
	<stop  offset="0.8525" style="stop-color:#002953"/>
</radialGradient>
<circle class="st4" cx="101.8" cy="102.8" r="50.5"/>
<g>
	<g>
		<path class="st5" d="M101,101l-5.4-4.9c-3.4-3.1-5-4.7-9.9-5.1c-2.3-0.2-4.5,0.2-6.5,1.1c-5.9,2.6-10,9.2-9,15.6
			c0.5,3.1,2,5.7,4.3,8.1l26.7,26.4l-0.1-16.8l-18-17.3c-1.9-1.9-2.7-4.2-2.6-7c1-0.1,1.8-0.2,2.6,0c2.2,0.4,3,1.5,4.5,3l13.5,12.9
			L101,101z"/>
		<path class="st5" d="M79.1,80.9c2.8,0,5.1,2.3,5.1,5.1c0,2.8-2.3,5.1-5.1,5.1c-2.8,0-5.1-2.3-5.1-5.1C74,83.2,76.3,80.9,79.1,80.9
			z"/>
		<path class="st5" d="M101,101l5.4-4.9c3.4-3.1,4.9-4.7,9.9-5.2c2.3-0.2,4.5,0.1,6.5,1c5.9,2.5,10.1,9.1,9.1,15.5
			c-0.4,3.1-2,5.8-4.2,8.2l-26.5,26.6l-0.1-16.8L119,108c1.8-1.9,2.6-4.2,2.5-7.1c-1-0.1-1.8-0.1-2.6,0c-2.2,0.4-3,1.5-4.5,3
			l-13.4,13.1L101,101z"/>
		<path class="st5" d="M122.8,80.7c-2.8,0-5.1,2.3-5.1,5.1c0,2.8,2.3,5.1,5.1,5.1c2.8,0,5.1-2.3,5.1-5.1
			C127.9,83,125.6,80.7,122.8,80.7z"/>
	</g>
	<g>
		<path class="st6" d="M101.6,100.7l-5.4-4.9c-3.4-3.1-5-4.7-9.9-5.1c-2.3-0.2-4.5,0.2-6.5,1.1c-5.9,2.6-10,9.2-9,15.6
			c0.5,3.1,2,5.7,4.3,8.1l26.7,26.4l-0.1-16.8l-18-17.3c-1.9-1.9-2.7-4.2-2.6-7c1-0.1,1.8-0.2,2.6,0c2.2,0.4,3,1.5,4.5,3l13.5,12.9
			L101.6,100.7z"/>
		<path class="st6" d="M79.7,80.6c2.8,0,5.1,2.3,5.1,5.1c0,2.8-2.3,5.1-5.1,5.1c-2.8,0-5.1-2.3-5.1-5.1
			C74.6,82.9,76.9,80.6,79.7,80.6z"/>
		<path class="st7" d="M101.6,100.7l5.4-4.9c3.4-3.1,4.9-4.7,9.9-5.2c2.3-0.2,4.5,0.1,6.5,1c5.9,2.5,10.1,9.1,9.1,15.5
			c-0.4,3.1-2,5.8-4.2,8.2l-26.5,26.6l-0.1-16.8l17.9-17.4c1.8-1.9,2.6-4.2,2.5-7.1c-1-0.1-1.8-0.1-2.6,0c-2.2,0.4-3,1.5-4.5,3
			l-13.4,13.1L101.6,100.7z"/>
		<path class="st7" d="M123.4,80.4c-2.8,0-5.1,2.3-5.1,5.1c0,2.8,2.3,5.1,5.1,5.1c2.8,0,5.1-2.3,5.1-5.1
			C128.5,82.7,126.2,80.4,123.4,80.4z"/>
	</g>
	<path class="st8" d="M101.6,100.7l-5.4-4.9c-1.2-1.1-2.1-2-3.1-2.7l-0.1,0c-6-1.6-13,1.9-11.9,9.4l0,0c-0.1-0.5-0.1-1.1-0.1-1.7
		c1-0.1,1.8-0.2,2.6,0c2.2,0.4,3,1.5,4.5,3l13.5,12.9L101.6,100.7z"/>
	<path class="st9" d="M101.6,100.7l5.4-4.9c1.2-1.1,2.1-2,3.1-2.7l0.1,0c6-1.7,13,1.8,11.9,9.3l0,0c0.1-0.5,0.1-1.1,0.1-1.7
		c-1-0.1-1.8-0.1-2.6,0c-2.2,0.4-3,1.5-4.5,3l-13.4,13.1L101.6,100.7z"/>
	<path class="st10" d="M106.1,56c-3,0.4-5.6,0.7-8.5,1.1c0.5,4,1,7.9,1.4,11.9c-5.7,0-11.4,0.2-17.3,0.7c0.6,2.9,1.1,5.9,1.7,8.8
		c5.4-1.6,10.8-2.9,16.2-3.9c1.4,16.5,2.3,33.8,2.4,50.4l0.4-0.4c1.7-15.7,2.5-32.6,3.3-51.1c7.5-1.2,15.1-1.9,22.6-2.4
		c-7.2-1.1-14.7-1.8-22.5-2C105.9,64.8,106,60.5,106.1,56z"/>
	<path class="st11" d="M107.1,54.8c-3,0.4-5.6,0.7-8.5,1.1c0.5,4,1,7.9,1.4,11.9c-5.7,0-11.4,0.2-17.3,0.7c0.6,2.9,1.1,5.9,1.7,8.8
		c5.4-1.6,10.8-2.9,16.2-3.9c1.4,17,1.8,34.2,1.9,51.3l0.6-0.6c1.7-15.6,2.8-33.3,3.6-51.7c7.5-1.2,15.1-1.9,22.6-2.4
		c-7.2-1.1-14.7-1.8-22.5-2C106.8,63.6,107,59.2,107.1,54.8z"/>
</g>
<g>
	<path class="st1" d="M47.9,113.4l-12.3,1.4l-0.5-4.7c-0.2-2.2,1.4-3.1,3.2-3.3c1-0.1,2.3,0,3,0.8c0.7,0.7,0.9,1.6,1,2.5l0.2,1.5
		l5.1-0.6L47.9,113.4z M40.7,111.9l-0.1-1.2c-0.1-1-0.6-1.6-2.1-1.5c-1.4,0.2-1.6,0.7-1.4,2l0.1,1L40.7,111.9z"/>
	<path class="st1" d="M47,105.6l-12.2-3.5L35,99l12.5-2.2l-0.1,2.5l-3.2,0.5l-0.1,2.7l3.1,0.8L47,105.6z M42.3,101.9l0.1-2l-3.5,0.5
		c-0.6,0.1-1.1,0.1-1.7,0.1c-0.3,0-0.6,0-0.8,0l0,0c0.3,0,0.5,0.1,0.8,0.1c0.6,0.1,1.1,0.2,1.7,0.3L42.3,101.9z"/>
	<path class="st1" d="M43.1,91.9l5.2,1.2l-0.5,2.2l-12-2.8l1-4.2c0.4-1.9,1.5-3.3,3.7-2.7c1.3,0.3,2.6,1,2.5,2.5l0,0
		c0.5-1.3,1.4-1.5,2.6-1.2c0.5,0.1,3.4,0.9,3.9,0.4l0.2,0.1L49,89.8c-0.8,0.1-2.3-0.3-3.1-0.5c-0.7-0.2-1.7-0.4-2.1,0.3
		c-0.3,0.6-0.5,1.2-0.6,1.9L43.1,91.9z M41.3,91.5l0.4-1.8c0.1-0.7-0.2-1.4-1.4-1.7c-1.3-0.3-1.7,0.2-1.9,1L38,90.7L41.3,91.5z"/>
	<path class="st1" d="M50.3,85.4l-11.4-4.8l2.5-6l1.7,0.7l-1.6,3.9l2.9,1.2l1.5-3.6l1.7,0.7L46,81.1l3.5,1.5l1.6-3.9l1.7,0.7
		L50.3,85.4z"/>
	<path class="st1" d="M51.2,74.4l1.3,0.8c0.4,0.2,0.8,0.3,1.1-0.2c0.4-0.7-0.1-1-0.7-1.4l-8.1-4.9l1.2-2l7.7,4.7
		c0.7,0.4,1.8,1,2.1,2c0.3,1-0.2,1.9-0.8,2.8c-0.4,0.7-1.2,1.3-2.3,1.4c-0.5,0-1.8-0.6-2.7-1.2L51.2,74.4z"/>
	<path class="st1" d="M57.2,71.9l-7.5-10.2l2-2.4L63,65.1L61.4,67l-2.8-1.6l-1.7,2.1l2,2.5L57.2,71.9z M55.7,66.1l1.3-1.5l-3.1-1.8
		c-0.5-0.3-1-0.6-1.5-0.9c-0.2-0.2-0.5-0.3-0.7-0.5l0,0c0.2,0.2,0.4,0.4,0.6,0.6c0.4,0.4,0.8,0.8,1.2,1.3L55.7,66.1z"/>
	<path class="st1" d="M62.2,54.5c-0.7-0.9-1.5-1.6-2.4-0.8c-0.6,0.5-0.8,1.1-0.2,1.7c0.6,0.7,1.3,0.6,2.1,0.5
		c0.9-0.1,2.6-0.3,3.4-0.2c1.1,0.1,1.8,0.5,2.5,1.3c1.5,1.8,1.1,3.7-0.6,5.2c-2.1,1.8-3.9,1.2-5.3-0.5L61,61l1.8-1.5l0.5,0.6
		c0.7,1,1.6,1.4,2.4,0.7c0.7-0.6,0.8-1.3,0.2-2c-0.5-0.6-1-0.7-1.8-0.7c-1.5,0.1-3.1,0.5-4.6,0.2c-0.7-0.2-1.2-0.6-1.7-1.1
		c-1.4-1.6-1.2-3.3,0.7-4.8c2.8-2.4,4.6-0.1,5.4,0.8L62.2,54.5z"/>
	<path class="st1" d="M75.4,55.8l-5.2-11.2l4.4-2c0.5-0.2,1.6-0.5,2.8,0.3c0.8,0.6,1.6,1.7,2.4,3.6c1,2.2,2.2,4.8,1,6.6
		c-0.3,0.5-0.9,0.8-1.4,1L75.4,55.8z M77.6,52.7c1.9-0.9,1.5-1.9,0-5.1c-1.2-2.6-2-3.6-3.2-3L73,45.3l3.7,7.9L77.6,52.7z"/>
	<path class="st1" d="M84.8,51.8L81.2,40l2.2-0.7l3.6,11.8L84.8,51.8z"/>
	<path class="st1" d="M92.8,41.1c-0.2-1.1-0.4-2.1-1.7-1.9c-0.8,0.1-1.2,0.5-1.1,1.3c0.2,0.9,0.8,1.2,1.6,1.5c0.8,0.3,2.4,1,3.1,1.5
		c0.9,0.6,1.3,1.3,1.5,2.4c0.4,2.3-0.9,3.8-3.2,4.1c-2.7,0.5-4-0.9-4.3-3.1l-0.2-0.9l2.3-0.4l0.1,0.7c0.2,1.2,0.7,2,1.8,1.8
		c1-0.2,1.3-0.7,1.2-1.7c-0.1-0.7-0.5-1.1-1.2-1.5c-1.3-0.7-2.9-1.1-4.1-2.2c-0.5-0.5-0.8-1.1-0.9-1.8c-0.3-2.1,0.6-3.4,3-3.8
		c3.6-0.6,4,2.2,4.2,3.4L92.8,41.1z"/>
	<path class="st1" d="M106.2,44.6c0,0.2,0,0.5-0.1,0.7c-0.1,2.3-0.9,4-3.5,4c-3.8,0-4-2.4-4-5.7l0-1.8c0.1-3.1,0.4-5.5,4.1-5.5
		c2.1,0,3.2,1.1,3.4,3.2c0,0.3,0.1,0.6,0,0.9l-2.3,0c-0.1-0.8,0-2.3-1.1-2.3c-1.8,0-1.7,2.1-1.7,3.1l0,3.4c0,1,0.1,2.7,1.6,2.7
		c1.3,0,1.1-2,1.2-2.8L106.2,44.6z"/>
	<path class="st1" d="M108.3,49.4l1.7-12.2l2.3,0.3l-1.7,12.2L108.3,49.4z"/>
	<path class="st1" d="M113.2,50.1l3.3-11.9l4.5,1.2c2.1,0.6,2.3,2.5,1.9,4.1c-0.3,1-0.9,2.1-1.9,2.5c-0.9,0.4-1.8,0.3-2.7,0
		l-1.5-0.4l-1.4,5L113.2,50.1z M117.2,43.9l1.2,0.3c1,0.3,1.7,0,2.1-1.4c0.4-1.4-0.1-1.7-1.4-2.1l-1-0.3L117.2,43.9z"/>
	<path class="st1" d="M132.5,44l2.1,1l-3.7,7.8c-1.2,2.5-2.5,3.3-5.3,2c-2.7-1.3-3-2.9-1.8-5.3l3.7-7.8l2.1,1l-3.6,7.6
		c-0.5,1.1-0.9,2.2,0.5,2.8c1.4,0.6,1.9-0.4,2.4-1.5L132.5,44z"/>
	<path class="st1" d="M131.3,57.4l7.1-10.1l1.9,1.3l-6.1,8.6l3.5,2.5l-1,1.5L131.3,57.4z"/>
	<path class="st1" d="M137.5,61.8l10.8-6.7l2.2,2.2L143.7,68l-1.7-1.7l1.8-2.6l-1.9-1.9l-2.6,1.8L137.5,61.8z M143.4,60.7l1.4,1.4
		l2-2.9c0.3-0.5,0.7-0.9,1-1.4c0.2-0.2,0.4-0.4,0.5-0.6l0,0c-0.2,0.2-0.4,0.3-0.6,0.5c-0.5,0.4-0.9,0.7-1.4,1.1L143.4,60.7z"/>
	<path class="st1" d="M144.7,69.2l10.1-7.1l2.8,3.9c0.3,0.5,0.8,1.5,0.2,2.8c-0.4,0.9-1.4,1.8-3.1,3c-2,1.4-4.3,3-6.3,2.1
		c-0.5-0.2-0.9-0.7-1.3-1.2L144.7,69.2z M148.1,70.9c1.2,1.7,2.1,1.2,5.1-0.9c2.4-1.7,3.2-2.6,2.4-3.7l-0.9-1.2l-7.1,5L148.1,70.9z"
		/>
	<path class="st1" d="M156.8,74.7c2.9-1.2,5.1-1.9,6.7,1.4c1.5,3.4-0.5,4.5-3.3,5.9l-1.6,0.7c-3,1.4-5.3,2.1-6.8-1.3
		c-1.6-3.4,0.5-4.7,3.5-6L156.8,74.7z M155.2,78c-0.9,0.4-2.4,1.2-1.8,2.6c0.7,1.5,2.2,0.8,3.3,0.3l2.9-1.3c0.9-0.4,2.9-1.3,2.2-2.8
		c-0.7-1.6-2.6-0.6-3.5-0.2L155.2,78z"/>
	<path class="st1" d="M160.1,88.1l-5.2,1.3l-0.5-2.2l12-2.9l1,4.2c0.5,1.9,0.2,3.6-2.1,4.1c-1.3,0.3-2.8,0.3-3.3-1.1l0,0
		c0.1,1.4-0.6,2-1.8,2.3c-0.5,0.1-3.5,0.8-3.7,1.4l-0.2,0.1l-0.6-2.5c0.7-0.5,2.2-0.8,3-1c0.7-0.2,1.7-0.4,1.8-1.2
		c0-0.6-0.1-1.3-0.3-1.9L160.1,88.1z M161.8,87.7l0.4,1.8c0.2,0.7,0.8,1.2,2,0.9c1.3-0.3,1.4-0.9,1.2-1.8l-0.4-1.7L161.8,87.7z"/>
	<path class="st1" d="M156.5,96.2l12.5,2.2l0.2,3.1l-12.2,3.5l-0.1-2.5l3.1-0.8l-0.2-2.7l-3.2-0.4L156.5,96.2z M161.6,99.4l0.1,2
		l3.5-0.8c0.6-0.1,1.1-0.2,1.7-0.3c0.3,0,0.6-0.1,0.8-0.1l0,0c-0.3,0-0.5,0-0.8,0c-0.6,0-1.1-0.1-1.7-0.1L161.6,99.4z"/>
	<path class="st1" d="M164.9,112.2c1.1,0.1,2.2,0.2,2.3-1.1c0.1-0.8-0.2-1.3-1-1.4c-0.9-0.1-1.4,0.4-1.9,1.1c-0.6,0.7-1.6,2-2.3,2.5
		c-0.9,0.7-1.6,0.9-2.7,0.7c-2.3-0.3-3.4-1.9-3.1-4.2c0.3-2.7,2-3.6,4.2-3.3l0.9,0.1L161,109l-0.7-0.1c-1.2-0.2-2.1,0.1-2.2,1.2
		c-0.1,1,0.3,1.5,1.3,1.6c0.7,0.1,1.2-0.2,1.7-0.7c1.1-1.1,1.9-2.5,3.2-3.3c0.6-0.3,1.3-0.4,1.9-0.4c2.1,0.2,3.1,1.5,2.8,4
		c-0.4,3.6-3.2,3.2-4.4,3.1L164.9,112.2z"/>
</g>
<g>
	<path class="st1" d="M79.9,166.9h-0.6v1.6h-0.9v-4h1.5c0.2,0,0.4,0,0.6,0.1c0.2,0,0.3,0.1,0.5,0.2c0.1,0.1,0.2,0.2,0.3,0.4
		c0.1,0.2,0.1,0.3,0.1,0.6c0,0.4-0.1,0.7-0.4,0.9C80.7,166.8,80.3,166.9,79.9,166.9z M79.8,165.2h-0.5v1h0.5c0.1,0,0.2,0,0.2,0
		c0.1,0,0.1,0,0.2-0.1s0.1-0.1,0.1-0.1c0-0.1,0.1-0.1,0.1-0.2s0-0.2,0-0.2c0-0.1-0.1-0.1-0.1-0.1C80.2,165.2,80,165.2,79.8,165.2z"
		/>
	<path class="st1" d="M83.4,167.6h-1.1l-0.2,0.8h-0.9l1.2-4h1l1.1,4h-0.9L83.4,167.6z M82.5,166.9h0.8l-0.4-1.4L82.5,166.9z"/>
	<path class="st1" d="M86.3,166.9h-0.5v1.6h-0.9v-4h1.6c0.2,0,0.4,0,0.5,0.1c0.2,0.1,0.3,0.1,0.4,0.2c0.1,0.1,0.2,0.2,0.3,0.4
		c0.1,0.2,0.1,0.3,0.1,0.5c0,0.2-0.1,0.4-0.2,0.6c-0.1,0.2-0.3,0.3-0.5,0.4l0.9,1.8h-1L86.3,166.9z M86.3,165.2h-0.6v1h0.5
		c0.1,0,0.2,0,0.2,0s0.2,0,0.2-0.1s0.1-0.1,0.2-0.1c0-0.1,0.1-0.1,0.1-0.2c0-0.1,0-0.2,0-0.2c0-0.1-0.1-0.1-0.1-0.2
		C86.7,165.2,86.5,165.2,86.3,165.2z"/>
	<path class="st1" d="M90.3,167.6h-1.1l-0.2,0.8h-0.9l1.2-4h1l1.1,4h-0.9L90.3,167.6z M89.4,166.9h0.8l-0.4-1.4L89.4,166.9z"/>
	<path class="st1" d="M96.8,168.6c-0.5,0-0.9-0.1-1.4-0.4c-0.2-0.1-0.4-0.3-0.6-0.5c-0.2-0.2-0.3-0.5-0.5-0.8l1.1-0.5
		c0.1,0.1,0.1,0.3,0.2,0.4c0.1,0.1,0.2,0.2,0.3,0.3c0.1,0.1,0.2,0.2,0.4,0.2s0.3,0.1,0.5,0.1c0.1,0,0.2,0,0.4,0
		c0.1,0,0.2-0.1,0.3-0.1c0.1-0.1,0.2-0.1,0.2-0.2s0.1-0.2,0.1-0.4c0-0.2-0.1-0.4-0.3-0.5c-0.2-0.2-0.5-0.3-0.9-0.4
		c-0.7-0.3-1.2-0.5-1.5-0.8c-0.3-0.3-0.5-0.7-0.5-1.2c0-0.5,0.2-0.9,0.6-1.3s0.9-0.5,1.5-0.5c0.5,0,1,0.1,1.4,0.4
		c0.2,0.1,0.4,0.3,0.5,0.5c0.2,0.2,0.3,0.4,0.4,0.7l-1.3,0.4c-0.1-0.2-0.2-0.4-0.4-0.6c-0.2-0.2-0.4-0.2-0.7-0.2c-0.1,0-0.2,0-0.3,0
		c-0.1,0-0.2,0.1-0.3,0.1c-0.1,0-0.1,0.1-0.2,0.2c0,0.1-0.1,0.2-0.1,0.3c0,0.1,0,0.2,0.1,0.2c0.1,0.1,0.1,0.2,0.3,0.2
		c0.3,0.2,0.6,0.3,0.9,0.4c0.5,0.2,0.9,0.4,1.3,0.7c0.4,0.3,0.6,0.7,0.6,1.3c0,0.6-0.2,1.1-0.6,1.5
		C98.1,168.4,97.5,168.6,96.8,168.6z"/>
	<path class="st1" d="M103.1,167.1h-1.8l-0.4,1.3h-1.4l1.9-6.4h1.6l1.8,6.4h-1.4L103.1,167.1z M101.6,166h1.2l-0.6-2.3L101.6,166z"
		/>
	<path class="st1" d="M105.6,162.1h1.4v5.2h2.7v1.2h-4.1V162.1z"/>
	<path class="st1" d="M111.1,168.5l-1.7-6.4h1.4l1,4.3l1.1-4.3h1.4l-1.7,6.4H111.1z"/>
	<path class="st1" d="M117.2,167.1h-1.8l-0.4,1.3h-1.4l1.9-6.4h1.6l1.8,6.4h-1.4L117.2,167.1z M115.7,166h1.2l-0.6-2.3L115.7,166z"
		/>
	<path class="st1" d="M121.9,166H121v2.5h-1.4v-6.4h2.6c0.3,0,0.6,0,0.9,0.1s0.5,0.2,0.7,0.4c0.2,0.2,0.3,0.4,0.4,0.6
		s0.2,0.5,0.2,0.9c0,0.4-0.1,0.7-0.3,1s-0.5,0.5-0.8,0.6l1.4,2.8H123L121.9,166z M121.9,163.3h-1v1.5h0.8c0.1,0,0.3,0,0.4,0
		c0.1,0,0.2,0,0.4-0.1c0.1-0.1,0.2-0.1,0.2-0.2c0.1-0.1,0.1-0.2,0.1-0.4c0-0.1,0-0.3-0.1-0.4c0-0.1-0.1-0.2-0.2-0.2
		C122.5,163.3,122.3,163.3,121.9,163.3z"/>
</g>
<g>
	<g>
		<path class="st12" d="M168.9,164.7c-44.1-5.8-87.9-5.8-132,0c-1.3-9.1-2.6-18.3-3.9-27.4c46.7-6.2,93.1-6.2,139.8,0
			C171.5,146.4,170.2,155.6,168.9,164.7z"/>
		<g>
			<g>
				<g>
					<path class="st2" d="M46,157.8c-1.2,0.1-2.2,0-3.1-0.3c-0.9-0.4-1.6-0.9-2.2-1.6c-0.6-0.7-1.1-1.6-1.4-2.5
						c-0.4-1-0.6-2-0.7-3.1c-0.1-1.1-0.2-2.1-0.1-3.2c0.1-1,0.3-2,0.7-2.8c0.4-0.8,1-1.6,1.8-2.1c0.8-0.6,1.8-0.9,3-1.1
						c1.3-0.2,2.5,0,3.6,0.5c0.5,0.2,1,0.6,1.5,1.2c0.4,0.5,0.8,1.3,1.2,2.2c-1.2,0.4-1.8,0.7-3.1,1.1c-0.3-0.6-0.7-1.2-1.1-1.6
						c-0.5-0.4-1.1-0.5-1.8-0.5c-0.4,0.1-0.8,0.2-1.1,0.4c-0.3,0.2-0.5,0.5-0.7,0.8c-0.2,0.3-0.3,0.7-0.4,1.1
						c-0.1,0.4-0.1,0.8-0.2,1.2c0,0.4,0,0.8,0,1.2c0,0.4,0.1,0.8,0.1,1.1c0.2,1.8,0.7,3.1,1.3,3.9c0.6,0.8,1.4,1.2,2.4,1
						c0.4,0,0.8-0.1,1-0.3c0.3-0.2,0.5-0.3,0.7-0.6c0.2-0.2,0.4-0.5,0.5-0.8s0.3-0.7,0.4-1c1.3,0.2,2,0.3,3.3,0.5
						c-0.2,0.9-0.5,1.6-0.8,2.2c-0.3,0.6-0.7,1.1-1.2,1.5C48.7,157.1,47.5,157.6,46,157.8z"/>
					<path class="st2" d="M59.1,156.4c-1.2,0.1-2.3,0-3.2-0.4c-0.9-0.4-1.6-0.9-2.2-1.6c-0.6-0.7-1.1-1.6-1.4-2.6s-0.6-2.1-0.7-3.2
						c-0.1-1.1-0.1-2.2,0-3.3c0.1-1,0.4-2,0.9-2.8c0.5-0.8,1.1-1.5,1.9-2c0.8-0.5,1.9-0.9,3.1-1c1.3-0.1,2.4,0,3.3,0.4
						c0.9,0.4,1.7,0.9,2.3,1.7c0.6,0.7,1.1,1.6,1.4,2.6c0.3,1,0.5,2.1,0.6,3.2c0.2,2.7-0.2,4.8-1.2,6.3
						C62.9,155.3,61.3,156.2,59.1,156.4z M57.9,142.6c-1.2,0.1-2,0.6-2.4,1.6c-0.5,1-0.6,2.4-0.4,4.2c0.2,1.8,0.6,3.1,1.2,4
						c0.6,0.8,1.5,1.2,2.6,1.1c1.1-0.1,1.9-0.6,2.4-1.6c0.5-1,0.6-2.4,0.5-4.2c-0.2-1.8-0.6-3.2-1.2-4
						C59.9,142.8,59,142.5,57.9,142.6z"/>
					<path class="st2" d="M70.1,144.5c0.3,4.3,0.4,6.5,0.7,10.8c-1.3,0.1-1.9,0.1-3.2,0.2c-0.5-6.6-0.7-9.9-1.2-16.4
						c1.4-0.1,2.1-0.2,3.5-0.2c2.6,4,3.9,6,6.5,9.9c-0.2-4.1-0.3-6.2-0.6-10.3c1.3-0.1,2-0.1,3.3-0.2c0.3,6.6,0.5,9.9,0.8,16.5
						c-1.3,0.1-1.9,0.1-3.2,0.2C74.2,150.7,72.8,148.6,70.1,144.5z"/>
					<path class="st2" d="M81.5,138.2c4.4-0.2,6.6-0.3,10.9-0.4c0,1.2,0,1.8,0.1,3c-3,0.1-4.4,0.1-7.4,0.2c0,1.3,0.1,2,0.1,3.4
						c2.1-0.1,3.2-0.1,5.4-0.2c0,1.2,0,1.8,0.1,3c-2.1,0.1-3.2,0.1-5.3,0.2c0.1,1.6,0.1,2.4,0.1,4.1c3-0.1,4.5-0.2,7.5-0.2
						c0,1.2,0,1.8,0.1,3c-4.3,0.1-6.5,0.2-10.8,0.3C81.9,148.1,81.8,144.8,81.5,138.2z"/>
					<path class="st2" d="M100.3,154.4c-1.2,0-2.2-0.2-3-0.7c-0.8-0.5-1.5-1.1-2-1.9c-0.5-0.8-0.9-1.7-1.1-2.7
						c-0.2-1-0.4-2.1-0.4-3.1c0-1.1,0.1-2.1,0.3-3.2c0.2-1,0.6-1.9,1.1-2.7c0.5-0.8,1.2-1.4,2-1.9c0.8-0.5,1.9-0.7,3.1-0.7
						c1.3,0,2.5,0.3,3.5,0.9c0.5,0.3,1,0.8,1.3,1.3c0.4,0.6,0.7,1.4,1,2.3c-1.3,0.3-1.9,0.5-3.2,0.8c-0.2-0.7-0.6-1.2-1-1.7
						c-0.4-0.4-1-0.7-1.7-0.7c-0.4,0-0.8,0.1-1.1,0.3c-0.3,0.2-0.6,0.4-0.8,0.7c-0.2,0.3-0.4,0.7-0.5,1c-0.1,0.4-0.2,0.8-0.3,1.2
						c-0.1,0.4-0.1,0.8-0.1,1.2c0,0.4,0,0.8,0,1.1c0,1.8,0.3,3.1,0.8,4c0.5,0.9,1.2,1.3,2.3,1.3c0.4,0,0.8-0.1,1.1-0.2
						c0.3-0.1,0.5-0.3,0.8-0.5c0.2-0.2,0.4-0.5,0.6-0.8c0.2-0.3,0.3-0.6,0.5-1c1.3,0.3,1.9,0.5,3.2,0.9c-0.3,0.8-0.7,1.5-1,2.1
						c-0.4,0.6-0.8,1-1.3,1.4C103,154,101.8,154.4,100.3,154.4z"/>
				</g>
				<path class="st2" d="M125.2,136.9c-3.5-1.4-7.4-2.6-11.6-3.5c0.5-2.2,1-4.4,1.5-6.7c0-0.2,0.1-0.2,0.1-0.4c-0.2,0-0.3,0-0.4,0
					c-0.8-0.1-1.6-0.1-2.4-0.2c-0.8,0-1.5-0.1-2.4-0.1c-0.1,0-0.2,0-0.4,0c0,0.1,0,0.2,0,0.4c-0.1,2-0.2,4.1-0.4,6.2
					c-2.9-0.5-6-0.9-9.1-1.2c-0.2,0-0.2,0-0.4,0c0.1,2.3,0.1,3.4,0.1,5.7c0.2,0,0.2,0,0.4,0c2.8-0.3,5.7-0.5,8.7-0.6
					c-0.8,8-1.8,16-2.9,23.9c0.4-0.3,0.7-0.5,1.1-0.9c2-7.7,4-15.3,5.8-23c3.8,0.1,7.7,0.5,12.1,1.2c1.3,0.2,1.9,0.3,3.2,0.5
					C127.1,137.6,126.5,137.3,125.2,136.9z"/>
				<g>
					<path class="st2" d="M122.2,151.1c-1.8-0.1-2.7-0.1-4.5-0.2c-0.4,1.4-0.6,2.1-1,3.4c-1.4,0-2-0.1-3.4-0.1c2-6.6,3-9.8,5.1-16.4
						c1.7,0.1,2.5,0.1,4.1,0.1c1.6,6.7,2.4,10,3.8,16.7c-1.4-0.1-2-0.1-3.4-0.2C122.6,153.2,122.5,152.5,122.2,151.1z M118.6,148
						c1.2,0,1.8,0.1,3,0.1c-0.5-2.4-0.7-3.5-1.3-5.9C119.6,144.5,119.3,145.7,118.6,148z"/>
					<path class="st0" d="M132.8,155.1c-2.1-0.1-3.1-0.2-5.2-0.3c0.3-6.6,0.5-9.9,0.9-16.5c2.1,0.1,3.2,0.2,5.3,0.3
						c1.3,0.1,2.4,0.4,3.3,0.8s1.6,1.1,2.2,1.8c0.6,0.8,0.9,1.7,1.1,2.7c0.2,1,0.3,2.2,0.2,3.4c-0.1,1.3-0.3,2.5-0.7,3.4
						c-0.4,1-0.9,1.8-1.6,2.5C137,154.7,135.2,155.3,132.8,155.1z M133.6,141.7c-0.7,0-1.1-0.1-1.8-0.1c-0.2,4.2-0.4,6.3-0.6,10.4
						c0.7,0,1.1,0.1,1.8,0.1c0.8,0,1.4,0,2-0.3c0.5-0.2,1-0.6,1.3-1.1c0.3-0.5,0.6-1,0.7-1.6c0.2-0.6,0.3-1.3,0.3-2
						c0.1-0.9,0-1.6-0.1-2.3c-0.1-0.7-0.3-1.2-0.6-1.7C136,142.3,135,141.8,133.6,141.7z"/>
					<path class="st0" d="M147.3,156.5c-1.2-0.1-2.2-0.4-3-1c-0.8-0.5-1.4-1.2-1.9-2c-0.5-0.8-0.8-1.7-0.9-2.8
						c-0.2-1-0.2-2.1-0.1-3.3c0.1-1.1,0.3-2.2,0.6-3.2c0.3-1,0.8-1.9,1.4-2.6c0.6-0.7,1.4-1.3,2.3-1.7c0.9-0.4,2-0.5,3.3-0.4
						c1.3,0.1,2.3,0.4,3.1,1c0.8,0.5,1.5,1.2,1.9,2c0.5,0.8,0.8,1.8,0.9,2.8c0.1,1,0.1,2.1,0,3.3c-0.3,2.7-1.1,4.6-2.4,6
						C151.2,156.1,149.5,156.7,147.3,156.5z M148.6,142.6c-1.2-0.1-2.1,0.3-2.7,1.1c-0.6,0.9-1,2.2-1.2,4c-0.2,1.8,0,3.2,0.5,4.2
						c0.4,0.9,1.2,1.5,2.4,1.6c1.1,0.1,2-0.3,2.6-1.1c0.6-0.9,1-2.2,1.2-4c0.2-1.8,0-3.2-0.4-4.2
						C150.6,143.3,149.8,142.8,148.6,142.6z"/>
					<path class="st0" d="M160.7,157.9c-1.1-0.1-2.2-0.6-3.2-1.3c-0.5-0.4-1-0.9-1.4-1.4c-0.4-0.6-0.7-1.2-0.9-2.1
						c1.2-0.4,1.8-0.6,3-1c0.1,0.4,0.3,0.8,0.4,1.1c0.2,0.3,0.4,0.6,0.6,0.9c0.2,0.3,0.5,0.5,0.8,0.6c0.3,0.2,0.7,0.3,1.1,0.3
						c0.3,0,0.6,0,0.9,0c0.3,0,0.6-0.1,0.8-0.2c0.2-0.1,0.4-0.3,0.6-0.5c0.2-0.2,0.3-0.5,0.3-0.9c0.1-0.5-0.1-1-0.6-1.5
						c-0.5-0.5-1.2-0.9-2-1.4c-1.6-0.8-2.8-1.7-3.5-2.4c-0.8-0.8-1.1-1.9-0.9-3.2c0.1-1.3,0.8-2.3,1.9-3.1c1.1-0.7,2.4-1,4-0.8
						c1.3,0.2,2.4,0.6,3.3,1.4c0.5,0.4,0.9,0.8,1.2,1.4c0.3,0.5,0.6,1.2,0.8,2c-1.3,0.2-2,0.3-3.3,0.6c-0.2-0.7-0.4-1.2-0.8-1.7
						c-0.3-0.4-0.9-0.7-1.6-0.8c-0.2,0-0.5,0-0.7,0c-0.2,0-0.5,0.1-0.7,0.2c-0.2,0.1-0.4,0.2-0.5,0.4c-0.1,0.2-0.2,0.4-0.3,0.7
						c0,0.2,0,0.4,0.1,0.7c0.1,0.2,0.3,0.4,0.6,0.7c0.6,0.5,1.4,0.9,2.2,1.3c1.2,0.6,2.2,1.3,3,2.2c0.9,0.9,1.3,2.1,1.1,3.6
						c-0.2,1.6-0.9,2.8-2,3.5C163.9,157.9,162.5,158.2,160.7,157.9z"/>
				</g>
			</g>
		</g>
	</g>
</g>
</svg>
